<mxfile host="65bd71144e">
    <diagram name="1 oldal" id="ypvtbMKJQPO5Nnuge0Bk">
        <mxGraphModel dx="1334" dy="360" grid="1" gridSize="10" guides="1" tooltips="1" connect="1" arrows="1" fold="1" page="1" pageScale="1" pageWidth="827" pageHeight="1169" math="0" shadow="0">
            <root>
                <mxCell id="0"/>
                <mxCell id="1" parent="0"/>
                <mxCell id="2q0eGMIXjcZ5DGIRHHWx-6" value="FesztivÃ¡l_KLNSPG" style="ellipse;whiteSpace=wrap;html=1;" parent="1" vertex="1">
                    <mxGeometry x="1970" y="190" width="120" height="60" as="geometry"/>
                </mxCell>
                <mxCell id="2q0eGMIXjcZ5DGIRHHWx-71" value="" style="group" parent="1" vertex="1" connectable="0">
                    <mxGeometry x="1370" y="460" width="612" height="371.25" as="geometry"/>
                </mxCell>
                <mxCell id="PHuZwR8dhzgnK9gtwOif-66" value="" style="group" parent="2q0eGMIXjcZ5DGIRHHWx-71" vertex="1" connectable="0">
                    <mxGeometry x="392" y="90" width="560" height="368.75" as="geometry"/>
                </mxCell>
                <mxCell id="PHuZwR8dhzgnK9gtwOif-67" value="name" style="ellipse;whiteSpace=wrap;html=1;container=0;" parent="PHuZwR8dhzgnK9gtwOif-66" vertex="1">
                    <mxGeometry x="128" y="153.75" width="120" height="60" as="geometry"/>
                </mxCell>
                <mxCell id="PHuZwR8dhzgnK9gtwOif-68" value="description" style="ellipse;whiteSpace=wrap;html=1;container=0;" parent="PHuZwR8dhzgnK9gtwOif-66" vertex="1">
                    <mxGeometry x="388" y="153.75" width="120" height="60" as="geometry"/>
                </mxCell>
                <mxCell id="PHuZwR8dhzgnK9gtwOif-69" value="&lt;u&gt;animal_id&lt;/u&gt;" style="rhombus;whiteSpace=wrap;html=1;container=0;" parent="PHuZwR8dhzgnK9gtwOif-66" vertex="1">
                    <mxGeometry x="38" y="141.25" width="80" height="80" as="geometry"/>
                </mxCell>
                <mxCell id="PHuZwR8dhzgnK9gtwOif-71" value="" style="endArrow=none;html=1;rounded=0;exitX=0.5;exitY=0;exitDx=0;exitDy=0;entryX=0.331;entryY=0.979;entryDx=0;entryDy=0;entryPerimeter=0;" parent="PHuZwR8dhzgnK9gtwOif-66" source="PHuZwR8dhzgnK9gtwOif-67" target="PHuZwR8dhzgnK9gtwOif-78" edge="1">
                    <mxGeometry width="50" height="50" relative="1" as="geometry">
                        <mxPoint x="260" y="-40" as="sourcePoint"/>
                        <mxPoint x="310" y="-90" as="targetPoint"/>
                    </mxGeometry>
                </mxCell>
                <mxCell id="PHuZwR8dhzgnK9gtwOif-72" value="" style="endArrow=none;html=1;rounded=0;exitX=0.5;exitY=0;exitDx=0;exitDy=0;entryX=0.036;entryY=0.693;entryDx=0;entryDy=0;entryPerimeter=0;" parent="PHuZwR8dhzgnK9gtwOif-66" source="PHuZwR8dhzgnK9gtwOif-69" target="PHuZwR8dhzgnK9gtwOif-78" edge="1">
                    <mxGeometry width="50" height="50" relative="1" as="geometry">
                        <mxPoint x="260" y="-40" as="sourcePoint"/>
                        <mxPoint x="208" y="40" as="targetPoint"/>
                    </mxGeometry>
                </mxCell>
                <mxCell id="PHuZwR8dhzgnK9gtwOif-74" value="" style="endArrow=none;html=1;rounded=0;exitX=0.5;exitY=0;exitDx=0;exitDy=0;entryX=0.944;entryY=0.741;entryDx=0;entryDy=0;entryPerimeter=0;" parent="PHuZwR8dhzgnK9gtwOif-66" source="PHuZwR8dhzgnK9gtwOif-68" target="PHuZwR8dhzgnK9gtwOif-78" edge="1">
                    <mxGeometry width="50" height="50" relative="1" as="geometry">
                        <mxPoint x="150" y="160" as="sourcePoint"/>
                        <mxPoint x="237" y="61" as="targetPoint"/>
                    </mxGeometry>
                </mxCell>
                <mxCell id="PHuZwR8dhzgnK9gtwOif-75" value="" style="endArrow=none;html=1;rounded=0;exitX=0;exitY=0.5;exitDx=0;exitDy=0;entryX=0.5;entryY=1;entryDx=0;entryDy=0;" parent="PHuZwR8dhzgnK9gtwOif-66" source="PHuZwR8dhzgnK9gtwOif-80" target="PHuZwR8dhzgnK9gtwOif-67" edge="1">
                    <mxGeometry width="50" height="50" relative="1" as="geometry">
                        <mxPoint x="188" y="243.75" as="sourcePoint"/>
                        <mxPoint x="458" y="143.75" as="targetPoint"/>
                    </mxGeometry>
                </mxCell>
                <mxCell id="PHuZwR8dhzgnK9gtwOif-76" value="" style="endArrow=none;html=1;rounded=0;exitX=0;exitY=0.5;exitDx=0;exitDy=0;entryX=0.5;entryY=1;entryDx=0;entryDy=0;" parent="PHuZwR8dhzgnK9gtwOif-66" source="PHuZwR8dhzgnK9gtwOif-82" target="PHuZwR8dhzgnK9gtwOif-68" edge="1">
                    <mxGeometry width="50" height="50" relative="1" as="geometry">
                        <mxPoint x="448" y="243.75" as="sourcePoint"/>
                        <mxPoint x="328" y="213.75" as="targetPoint"/>
                    </mxGeometry>
                </mxCell>
                <mxCell id="PHuZwR8dhzgnK9gtwOif-77" value="" style="group" parent="PHuZwR8dhzgnK9gtwOif-66" vertex="1" connectable="0">
                    <mxGeometry x="200" width="120" height="60" as="geometry"/>
                </mxCell>
                <mxCell id="PHuZwR8dhzgnK9gtwOif-78" value="" style="ellipse;whiteSpace=wrap;html=1;container=0;" parent="PHuZwR8dhzgnK9gtwOif-77" vertex="1">
                    <mxGeometry width="120" height="60" as="geometry"/>
                </mxCell>
                <mxCell id="PHuZwR8dhzgnK9gtwOif-79" value="Animal" style="ellipse;whiteSpace=wrap;html=1;container=0;" parent="PHuZwR8dhzgnK9gtwOif-77" vertex="1">
                    <mxGeometry x="5" y="5" width="110" height="50" as="geometry"/>
                </mxCell>
                <mxCell id="PHuZwR8dhzgnK9gtwOif-80" value="" style="rounded=0;whiteSpace=wrap;html=1;rotation=90;container=0;" parent="PHuZwR8dhzgnK9gtwOif-66" vertex="1">
                    <mxGeometry x="163" y="325" width="50" height="40" as="geometry"/>
                </mxCell>
                <mxCell id="PHuZwR8dhzgnK9gtwOif-81" value="" style="rounded=0;whiteSpace=wrap;html=1;rotation=90;container=0;" parent="PHuZwR8dhzgnK9gtwOif-66" vertex="1">
                    <mxGeometry x="293" y="325" width="50" height="40" as="geometry"/>
                </mxCell>
                <mxCell id="PHuZwR8dhzgnK9gtwOif-82" value="" style="rounded=0;whiteSpace=wrap;html=1;rotation=90;container=0;" parent="PHuZwR8dhzgnK9gtwOif-66" vertex="1">
                    <mxGeometry x="423" y="327.5" width="50" height="40" as="geometry"/>
                </mxCell>
                <mxCell id="PHuZwR8dhzgnK9gtwOif-86" value="" style="endArrow=none;html=1;rounded=0;exitX=0.581;exitY=0.007;exitDx=0;exitDy=0;entryX=0.662;entryY=0.975;entryDx=0;entryDy=0;exitPerimeter=0;entryPerimeter=0;" parent="PHuZwR8dhzgnK9gtwOif-66" source="w3Yrm_y4okoA8DExeI4v-46" target="PHuZwR8dhzgnK9gtwOif-78" edge="1">
                    <mxGeometry width="50" height="50" relative="1" as="geometry">
                        <mxPoint x="260" y="150" as="sourcePoint"/>
                        <mxPoint x="260" y="80" as="targetPoint"/>
                    </mxGeometry>
                </mxCell>
                <mxCell id="PHuZwR8dhzgnK9gtwOif-87" value="" style="endArrow=none;html=1;rounded=0;exitX=0;exitY=0.5;exitDx=0;exitDy=0;entryX=0.5;entryY=1;entryDx=0;entryDy=0;" parent="PHuZwR8dhzgnK9gtwOif-66" source="PHuZwR8dhzgnK9gtwOif-81" edge="1">
                    <mxGeometry width="50" height="50" relative="1" as="geometry">
                        <mxPoint x="318" y="243.75" as="sourcePoint"/>
                        <mxPoint x="318" y="213.75" as="targetPoint"/>
                    </mxGeometry>
                </mxCell>
                <mxCell id="w3Yrm_y4okoA8DExeI4v-46" value="racial" style="ellipse;whiteSpace=wrap;html=1;container=0;" parent="PHuZwR8dhzgnK9gtwOif-66" vertex="1">
                    <mxGeometry x="258" y="153.75" width="120" height="60" as="geometry"/>
                </mxCell>
                <mxCell id="w3Yrm_y4okoA8DExeI4v-283" style="edgeStyle=orthogonalEdgeStyle;rounded=0;orthogonalLoop=1;jettySize=auto;html=1;dashed=1;exitX=0.5;exitY=1;exitDx=0;exitDy=0;entryX=0;entryY=1;entryDx=0;entryDy=0;" parent="2q0eGMIXjcZ5DGIRHHWx-71" target="PHuZwR8dhzgnK9gtwOif-69" edge="1">
                    <mxGeometry relative="1" as="geometry">
                        <Array as="points">
                            <mxPoint x="290" y="540"/>
                            <mxPoint x="450" y="540"/>
                        </Array>
                        <mxPoint x="290" y="311.25" as="sourcePoint"/>
                        <mxPoint x="460" y="310" as="targetPoint"/>
                    </mxGeometry>
                </mxCell>
                <mxCell id="2q0eGMIXjcZ5DGIRHHWx-94" value="" style="group" parent="1" vertex="1" connectable="0">
                    <mxGeometry x="2439" y="530" width="806" height="375.25" as="geometry"/>
                </mxCell>
                <mxCell id="PHuZwR8dhzgnK9gtwOif-89" value="" style="group" parent="2q0eGMIXjcZ5DGIRHHWx-94" vertex="1" connectable="0">
                    <mxGeometry x="-139" y="5" width="560" height="370" as="geometry"/>
                </mxCell>
                <mxCell id="PHuZwR8dhzgnK9gtwOif-90" value="name" style="ellipse;whiteSpace=wrap;html=1;container=0;" parent="PHuZwR8dhzgnK9gtwOif-89" vertex="1">
                    <mxGeometry x="140" y="168.75" width="120" height="60" as="geometry"/>
                </mxCell>
                <mxCell id="PHuZwR8dhzgnK9gtwOif-93" value="&lt;u&gt;food_id&lt;/u&gt;" style="rhombus;whiteSpace=wrap;html=1;container=0;" parent="PHuZwR8dhzgnK9gtwOif-89" vertex="1">
                    <mxGeometry x="50" y="158.75" width="80" height="80" as="geometry"/>
                </mxCell>
                <mxCell id="PHuZwR8dhzgnK9gtwOif-95" value="" style="endArrow=none;html=1;rounded=0;exitX=0.5;exitY=0;exitDx=0;exitDy=0;entryX=0.714;entryY=0.96;entryDx=0;entryDy=0;entryPerimeter=0;" parent="PHuZwR8dhzgnK9gtwOif-89" source="w3Yrm_y4okoA8DExeI4v-50" target="PHuZwR8dhzgnK9gtwOif-104" edge="1">
                    <mxGeometry width="50" height="50" relative="1" as="geometry">
                        <mxPoint x="272" y="165" as="sourcePoint"/>
                        <mxPoint x="272" y="105" as="targetPoint"/>
                    </mxGeometry>
                </mxCell>
                <mxCell id="PHuZwR8dhzgnK9gtwOif-96" value="" style="endArrow=none;html=1;rounded=0;exitX=0.5;exitY=0;exitDx=0;exitDy=0;entryX=0.262;entryY=0.937;entryDx=0;entryDy=0;entryPerimeter=0;" parent="PHuZwR8dhzgnK9gtwOif-89" source="PHuZwR8dhzgnK9gtwOif-90" target="PHuZwR8dhzgnK9gtwOif-104" edge="1">
                    <mxGeometry width="50" height="50" relative="1" as="geometry">
                        <mxPoint x="272" y="-15" as="sourcePoint"/>
                        <mxPoint x="322" y="-65" as="targetPoint"/>
                    </mxGeometry>
                </mxCell>
                <mxCell id="PHuZwR8dhzgnK9gtwOif-97" value="" style="endArrow=none;html=1;rounded=0;exitX=0.5;exitY=0;exitDx=0;exitDy=0;entryX=0;entryY=0.5;entryDx=0;entryDy=0;" parent="PHuZwR8dhzgnK9gtwOif-89" source="PHuZwR8dhzgnK9gtwOif-93" target="PHuZwR8dhzgnK9gtwOif-104" edge="1">
                    <mxGeometry width="50" height="50" relative="1" as="geometry">
                        <mxPoint x="272" y="-15" as="sourcePoint"/>
                        <mxPoint x="322" y="-65" as="targetPoint"/>
                    </mxGeometry>
                </mxCell>
                <mxCell id="PHuZwR8dhzgnK9gtwOif-99" value="" style="endArrow=none;html=1;rounded=0;exitX=0.5;exitY=0;exitDx=0;exitDy=0;entryX=1;entryY=0.5;entryDx=0;entryDy=0;" parent="PHuZwR8dhzgnK9gtwOif-89" source="w3Yrm_y4okoA8DExeI4v-48" target="PHuZwR8dhzgnK9gtwOif-104" edge="1">
                    <mxGeometry width="50" height="50" relative="1" as="geometry">
                        <mxPoint x="402" y="165" as="sourcePoint"/>
                        <mxPoint x="249" y="86" as="targetPoint"/>
                    </mxGeometry>
                </mxCell>
                <mxCell id="PHuZwR8dhzgnK9gtwOif-100" value="" style="endArrow=none;html=1;rounded=0;exitX=0;exitY=0.5;exitDx=0;exitDy=0;entryX=0.5;entryY=1;entryDx=0;entryDy=0;" parent="PHuZwR8dhzgnK9gtwOif-89" source="PHuZwR8dhzgnK9gtwOif-106" target="PHuZwR8dhzgnK9gtwOif-90" edge="1">
                    <mxGeometry width="50" height="50" relative="1" as="geometry">
                        <mxPoint x="200" y="268.75" as="sourcePoint"/>
                        <mxPoint x="470" y="168.75" as="targetPoint"/>
                    </mxGeometry>
                </mxCell>
                <mxCell id="PHuZwR8dhzgnK9gtwOif-101" value="" style="endArrow=none;html=1;rounded=0;exitX=0;exitY=0.5;exitDx=0;exitDy=0;entryX=0.5;entryY=1;entryDx=0;entryDy=0;" parent="PHuZwR8dhzgnK9gtwOif-89" source="PHuZwR8dhzgnK9gtwOif-107" edge="1">
                    <mxGeometry width="50" height="50" relative="1" as="geometry">
                        <mxPoint x="330" y="268.75" as="sourcePoint"/>
                        <mxPoint x="330" y="228.75" as="targetPoint"/>
                    </mxGeometry>
                </mxCell>
                <mxCell id="PHuZwR8dhzgnK9gtwOif-102" value="" style="endArrow=none;html=1;rounded=0;exitX=0;exitY=0.5;exitDx=0;exitDy=0;entryX=0.5;entryY=1;entryDx=0;entryDy=0;" parent="PHuZwR8dhzgnK9gtwOif-89" source="PHuZwR8dhzgnK9gtwOif-108" edge="1">
                    <mxGeometry width="50" height="50" relative="1" as="geometry">
                        <mxPoint x="460" y="268.75" as="sourcePoint"/>
                        <mxPoint x="460" y="228.75" as="targetPoint"/>
                    </mxGeometry>
                </mxCell>
                <mxCell id="PHuZwR8dhzgnK9gtwOif-104" value="" style="ellipse;whiteSpace=wrap;html=1;container=0;" parent="PHuZwR8dhzgnK9gtwOif-89" vertex="1">
                    <mxGeometry x="212" y="15" width="120" height="60" as="geometry"/>
                </mxCell>
                <mxCell id="PHuZwR8dhzgnK9gtwOif-105" value="Food" style="ellipse;whiteSpace=wrap;html=1;container=0;" parent="PHuZwR8dhzgnK9gtwOif-89" vertex="1">
                    <mxGeometry x="217" y="20" width="110" height="50" as="geometry"/>
                </mxCell>
                <mxCell id="PHuZwR8dhzgnK9gtwOif-106" value="" style="rounded=0;whiteSpace=wrap;html=1;rotation=90;container=0;" parent="PHuZwR8dhzgnK9gtwOif-89" vertex="1">
                    <mxGeometry x="175" y="341.25" width="50" height="40" as="geometry"/>
                </mxCell>
                <mxCell id="PHuZwR8dhzgnK9gtwOif-107" value="" style="rounded=0;whiteSpace=wrap;html=1;rotation=90;container=0;" parent="PHuZwR8dhzgnK9gtwOif-89" vertex="1">
                    <mxGeometry x="305" y="341.25" width="50" height="40" as="geometry"/>
                </mxCell>
                <mxCell id="PHuZwR8dhzgnK9gtwOif-108" value="" style="rounded=0;whiteSpace=wrap;html=1;rotation=90;container=0;" parent="PHuZwR8dhzgnK9gtwOif-89" vertex="1">
                    <mxGeometry x="435" y="343.75" width="50" height="40" as="geometry"/>
                </mxCell>
                <mxCell id="w3Yrm_y4okoA8DExeI4v-48" value="" style="ellipse;whiteSpace=wrap;html=1;container=0;" parent="PHuZwR8dhzgnK9gtwOif-89" vertex="1">
                    <mxGeometry x="400" y="168.75" width="120" height="60" as="geometry"/>
                </mxCell>
                <mxCell id="w3Yrm_y4okoA8DExeI4v-49" value="company" style="ellipse;whiteSpace=wrap;html=1;container=0;" parent="PHuZwR8dhzgnK9gtwOif-89" vertex="1">
                    <mxGeometry x="405" y="173.75" width="110" height="50" as="geometry"/>
                </mxCell>
                <mxCell id="w3Yrm_y4okoA8DExeI4v-50" value="is_delicious" style="ellipse;whiteSpace=wrap;html=1;container=0;" parent="PHuZwR8dhzgnK9gtwOif-89" vertex="1">
                    <mxGeometry x="270" y="168.75" width="120" height="60" as="geometry"/>
                </mxCell>
                <mxCell id="w3Yrm_y4okoA8DExeI4v-284" style="edgeStyle=orthogonalEdgeStyle;rounded=0;orthogonalLoop=1;jettySize=auto;html=1;entryX=0.5;entryY=1;entryDx=0;entryDy=0;dashed=1;exitX=0.5;exitY=1;exitDx=0;exitDy=0;" parent="PHuZwR8dhzgnK9gtwOif-89" source="PHuZwR8dhzgnK9gtwOif-144" edge="1">
                    <mxGeometry relative="1" as="geometry">
                        <Array as="points">
                            <mxPoint x="885" y="425"/>
                            <mxPoint x="90" y="425"/>
                        </Array>
                        <mxPoint x="1300" y="254.75" as="sourcePoint"/>
                        <mxPoint x="90" y="238.75" as="targetPoint"/>
                    </mxGeometry>
                </mxCell>
                <mxCell id="PHuZwR8dhzgnK9gtwOif-132" value="" style="group" parent="2q0eGMIXjcZ5DGIRHHWx-94" vertex="1" connectable="0">
                    <mxGeometry x="431" y="20" width="455" height="370" as="geometry"/>
                </mxCell>
                <mxCell id="PHuZwR8dhzgnK9gtwOif-133" value="AnimalEat" style="rhombus;whiteSpace=wrap;html=1;container=0;" parent="PHuZwR8dhzgnK9gtwOif-132" vertex="1">
                    <mxGeometry x="375" y="149.38" width="80" height="80" as="geometry"/>
                </mxCell>
                <mxCell id="PHuZwR8dhzgnK9gtwOif-134" value="feeding_time" style="ellipse;whiteSpace=wrap;html=1;container=0;" parent="PHuZwR8dhzgnK9gtwOif-132" vertex="1">
                    <mxGeometry x="115" y="155" width="120" height="60" as="geometry"/>
                </mxCell>
                <mxCell id="PHuZwR8dhzgnK9gtwOif-135" value="&lt;u&gt;eat_id&lt;/u&gt;" style="rhombus;whiteSpace=wrap;html=1;container=0;" parent="PHuZwR8dhzgnK9gtwOif-132" vertex="1">
                    <mxGeometry y="145" width="80" height="80" as="geometry"/>
                </mxCell>
                <mxCell id="PHuZwR8dhzgnK9gtwOif-136" value="" style="endArrow=none;html=1;rounded=0;exitX=0.5;exitY=0;exitDx=0;exitDy=0;entryX=0.736;entryY=0.942;entryDx=0;entryDy=0;entryPerimeter=0;" parent="PHuZwR8dhzgnK9gtwOif-132" target="PHuZwR8dhzgnK9gtwOif-142" edge="1">
                    <mxGeometry width="50" height="50" relative="1" as="geometry">
                        <mxPoint x="320" y="160" as="sourcePoint"/>
                        <mxPoint x="160" y="105" as="targetPoint"/>
                    </mxGeometry>
                </mxCell>
                <mxCell id="PHuZwR8dhzgnK9gtwOif-137" value="" style="endArrow=none;html=1;rounded=0;exitX=0.5;exitY=0;exitDx=0;exitDy=0;entryX=0.5;entryY=1;entryDx=0;entryDy=0;" parent="PHuZwR8dhzgnK9gtwOif-132" source="PHuZwR8dhzgnK9gtwOif-134" target="PHuZwR8dhzgnK9gtwOif-143" edge="1">
                    <mxGeometry width="50" height="50" relative="1" as="geometry">
                        <mxPoint x="160" y="-15" as="sourcePoint"/>
                        <mxPoint x="210" y="-65" as="targetPoint"/>
                    </mxGeometry>
                </mxCell>
                <mxCell id="PHuZwR8dhzgnK9gtwOif-138" value="" style="endArrow=none;html=1;rounded=0;exitX=0.5;exitY=0;exitDx=0;exitDy=0;entryX=0;entryY=1;entryDx=0;entryDy=0;" parent="PHuZwR8dhzgnK9gtwOif-132" source="PHuZwR8dhzgnK9gtwOif-135" target="PHuZwR8dhzgnK9gtwOif-142" edge="1">
                    <mxGeometry width="50" height="50" relative="1" as="geometry">
                        <mxPoint x="160" y="-15" as="sourcePoint"/>
                        <mxPoint x="210" y="-65" as="targetPoint"/>
                    </mxGeometry>
                </mxCell>
                <mxCell id="PHuZwR8dhzgnK9gtwOif-139" value="" style="rounded=0;whiteSpace=wrap;html=1;rotation=90;container=0;" parent="PHuZwR8dhzgnK9gtwOif-132" vertex="1">
                    <mxGeometry x="150" y="330" width="50" height="40" as="geometry"/>
                </mxCell>
                <mxCell id="PHuZwR8dhzgnK9gtwOif-140" value="" style="endArrow=none;html=1;rounded=0;exitX=0;exitY=0.5;exitDx=0;exitDy=0;entryX=0.5;entryY=1;entryDx=0;entryDy=0;" parent="PHuZwR8dhzgnK9gtwOif-132" source="PHuZwR8dhzgnK9gtwOif-139" target="PHuZwR8dhzgnK9gtwOif-134" edge="1">
                    <mxGeometry width="50" height="50" relative="1" as="geometry">
                        <mxPoint x="250" y="220" as="sourcePoint"/>
                        <mxPoint x="300" y="170" as="targetPoint"/>
                    </mxGeometry>
                </mxCell>
                <mxCell id="PHuZwR8dhzgnK9gtwOif-141" value="" style="group" parent="PHuZwR8dhzgnK9gtwOif-132" vertex="1" connectable="0">
                    <mxGeometry x="115" width="120" height="60" as="geometry"/>
                </mxCell>
                <mxCell id="PHuZwR8dhzgnK9gtwOif-142" value="" style="ellipse;whiteSpace=wrap;html=1;container=0;" parent="PHuZwR8dhzgnK9gtwOif-141" vertex="1">
                    <mxGeometry width="120" height="60" as="geometry"/>
                </mxCell>
                <mxCell id="PHuZwR8dhzgnK9gtwOif-143" value="Eat" style="ellipse;whiteSpace=wrap;html=1;container=0;" parent="PHuZwR8dhzgnK9gtwOif-141" vertex="1">
                    <mxGeometry x="5" y="5" width="110" height="50" as="geometry"/>
                </mxCell>
                <mxCell id="PHuZwR8dhzgnK9gtwOif-144" value="FoodEat" style="rhombus;whiteSpace=wrap;html=1;container=0;" parent="PHuZwR8dhzgnK9gtwOif-132" vertex="1">
                    <mxGeometry x="275" y="149.38" width="80" height="80" as="geometry"/>
                </mxCell>
                <mxCell id="PHuZwR8dhzgnK9gtwOif-145" value="" style="endArrow=none;html=1;rounded=0;entryX=1;entryY=1;entryDx=0;entryDy=0;exitX=0.5;exitY=0;exitDx=0;exitDy=0;" parent="PHuZwR8dhzgnK9gtwOif-132" source="PHuZwR8dhzgnK9gtwOif-133" target="PHuZwR8dhzgnK9gtwOif-142" edge="1">
                    <mxGeometry width="50" height="50" relative="1" as="geometry">
                        <mxPoint x="395" y="180" as="sourcePoint"/>
                        <mxPoint x="445" y="130" as="targetPoint"/>
                    </mxGeometry>
                </mxCell>
                <mxCell id="PHuZwR8dhzgnK9gtwOif-146" value="" style="endArrow=none;dashed=1;html=1;rounded=0;" parent="PHuZwR8dhzgnK9gtwOif-132" edge="1">
                    <mxGeometry width="50" height="50" relative="1" as="geometry">
                        <mxPoint x="287.5" y="196.75" as="sourcePoint"/>
                        <mxPoint x="342.5" y="197.19999999999993" as="targetPoint"/>
                        <Array as="points">
                            <mxPoint x="342.5" y="196.78999999999996"/>
                        </Array>
                    </mxGeometry>
                </mxCell>
                <mxCell id="PHuZwR8dhzgnK9gtwOif-147" value="" style="endArrow=none;dashed=1;html=1;rounded=0;" parent="PHuZwR8dhzgnK9gtwOif-132" edge="1">
                    <mxGeometry width="50" height="50" relative="1" as="geometry">
                        <mxPoint x="385" y="196.75" as="sourcePoint"/>
                        <mxPoint x="445" y="196.90999999999997" as="targetPoint"/>
                        <Array as="points">
                            <mxPoint x="445" y="196.5"/>
                        </Array>
                    </mxGeometry>
                </mxCell>
                <mxCell id="PHuZwR8dhzgnK9gtwOif-1" value="Zoo_KLNSPG" style="ellipse;whiteSpace=wrap;html=1;" parent="1" vertex="1">
                    <mxGeometry x="1970" y="190" width="120" height="60" as="geometry"/>
                </mxCell>
                <mxCell id="PHuZwR8dhzgnK9gtwOif-2" value="" style="group" parent="1" vertex="1" connectable="0">
                    <mxGeometry x="-450" y="533.75" width="540" height="370" as="geometry"/>
                </mxCell>
                <mxCell id="PHuZwR8dhzgnK9gtwOif-3" value="name" style="ellipse;whiteSpace=wrap;html=1;" parent="PHuZwR8dhzgnK9gtwOif-2" vertex="1">
                    <mxGeometry x="110" y="150" width="120" height="60" as="geometry"/>
                </mxCell>
                <mxCell id="PHuZwR8dhzgnK9gtwOif-4" value="birth_date" style="ellipse;whiteSpace=wrap;html=1;" parent="PHuZwR8dhzgnK9gtwOif-2" vertex="1">
                    <mxGeometry x="380" y="150" width="120" height="60" as="geometry"/>
                </mxCell>
                <mxCell id="PHuZwR8dhzgnK9gtwOif-5" value="sex" style="ellipse;whiteSpace=wrap;html=1;" parent="PHuZwR8dhzgnK9gtwOif-2" vertex="1">
                    <mxGeometry x="240" y="150" width="120" height="60" as="geometry"/>
                </mxCell>
                <mxCell id="PHuZwR8dhzgnK9gtwOif-6" value="&lt;u&gt;emp_id&lt;/u&gt;" style="rhombus;whiteSpace=wrap;html=1;" parent="PHuZwR8dhzgnK9gtwOif-2" vertex="1">
                    <mxGeometry y="140" width="80" height="80" as="geometry"/>
                </mxCell>
                <mxCell id="PHuZwR8dhzgnK9gtwOif-13" value="" style="endArrow=none;html=1;rounded=0;entryX=0.359;entryY=0.978;entryDx=0;entryDy=0;exitX=0.5;exitY=0;exitDx=0;exitDy=0;entryPerimeter=0;" parent="PHuZwR8dhzgnK9gtwOif-2" source="PHuZwR8dhzgnK9gtwOif-5" target="PHuZwR8dhzgnK9gtwOif-8" edge="1">
                    <mxGeometry width="50" height="50" relative="1" as="geometry">
                        <mxPoint x="260" y="145" as="sourcePoint"/>
                        <mxPoint x="310" y="95" as="targetPoint"/>
                    </mxGeometry>
                </mxCell>
                <mxCell id="PHuZwR8dhzgnK9gtwOif-14" value="" style="endArrow=none;html=1;rounded=0;entryX=0.023;entryY=0.635;entryDx=0;entryDy=0;exitX=0.5;exitY=0;exitDx=0;exitDy=0;entryPerimeter=0;" parent="PHuZwR8dhzgnK9gtwOif-2" source="PHuZwR8dhzgnK9gtwOif-3" target="PHuZwR8dhzgnK9gtwOif-8" edge="1">
                    <mxGeometry width="50" height="50" relative="1" as="geometry">
                        <mxPoint x="260" y="145" as="sourcePoint"/>
                        <mxPoint x="310" y="95" as="targetPoint"/>
                    </mxGeometry>
                </mxCell>
                <mxCell id="PHuZwR8dhzgnK9gtwOif-15" value="" style="endArrow=none;html=1;rounded=0;entryX=0;entryY=0.5;entryDx=0;entryDy=0;exitX=0.5;exitY=0;exitDx=0;exitDy=0;" parent="PHuZwR8dhzgnK9gtwOif-2" source="PHuZwR8dhzgnK9gtwOif-6" target="PHuZwR8dhzgnK9gtwOif-8" edge="1">
                    <mxGeometry width="50" height="50" relative="1" as="geometry">
                        <mxPoint x="260" y="145" as="sourcePoint"/>
                        <mxPoint x="310" y="95" as="targetPoint"/>
                    </mxGeometry>
                </mxCell>
                <mxCell id="PHuZwR8dhzgnK9gtwOif-16" value="" style="endArrow=none;html=1;rounded=0;entryX=0.625;entryY=0.938;entryDx=0;entryDy=0;exitX=0.5;exitY=0;exitDx=0;exitDy=0;entryPerimeter=0;" parent="PHuZwR8dhzgnK9gtwOif-2" source="PHuZwR8dhzgnK9gtwOif-4" target="PHuZwR8dhzgnK9gtwOif-8" edge="1">
                    <mxGeometry width="50" height="50" relative="1" as="geometry">
                        <mxPoint x="310" y="160" as="sourcePoint"/>
                        <mxPoint x="303" y="61" as="targetPoint"/>
                    </mxGeometry>
                </mxCell>
                <mxCell id="PHuZwR8dhzgnK9gtwOif-7" value="" style="group" parent="PHuZwR8dhzgnK9gtwOif-2" vertex="1" connectable="0">
                    <mxGeometry x="295" width="120" height="60" as="geometry"/>
                </mxCell>
                <mxCell id="PHuZwR8dhzgnK9gtwOif-8" value="" style="ellipse;whiteSpace=wrap;html=1;" parent="PHuZwR8dhzgnK9gtwOif-7" vertex="1">
                    <mxGeometry width="120" height="60" as="geometry"/>
                </mxCell>
                <mxCell id="PHuZwR8dhzgnK9gtwOif-9" value="Employee" style="ellipse;whiteSpace=wrap;html=1;" parent="PHuZwR8dhzgnK9gtwOif-7" vertex="1">
                    <mxGeometry x="5" y="5" width="110" height="50" as="geometry"/>
                </mxCell>
                <mxCell id="w3Yrm_y4okoA8DExeI4v-281" style="edgeStyle=orthogonalEdgeStyle;rounded=0;orthogonalLoop=1;jettySize=auto;html=1;entryX=0.5;entryY=1;entryDx=0;entryDy=0;dashed=1;exitX=0.5;exitY=1;exitDx=0;exitDy=0;" parent="PHuZwR8dhzgnK9gtwOif-2" source="w3Yrm_y4okoA8DExeI4v-91" edge="1">
                    <mxGeometry relative="1" as="geometry">
                        <Array as="points">
                            <mxPoint x="1250" y="466"/>
                            <mxPoint x="40" y="466"/>
                        </Array>
                        <mxPoint x="1300" y="226" as="sourcePoint"/>
                        <mxPoint x="40" y="220" as="targetPoint"/>
                    </mxGeometry>
                </mxCell>
                <mxCell id="PHuZwR8dhzgnK9gtwOif-20" value="" style="group" parent="1" vertex="1" connectable="0">
                    <mxGeometry x="340" y="532.5" width="730" height="368.75" as="geometry"/>
                </mxCell>
                <mxCell id="PHuZwR8dhzgnK9gtwOif-26" value="name" style="ellipse;whiteSpace=wrap;html=1;" parent="PHuZwR8dhzgnK9gtwOif-20" vertex="1">
                    <mxGeometry x="10" y="157.5" width="120" height="60" as="geometry"/>
                </mxCell>
                <mxCell id="PHuZwR8dhzgnK9gtwOif-27" value="opening_hours" style="ellipse;whiteSpace=wrap;html=1;" parent="PHuZwR8dhzgnK9gtwOif-20" vertex="1">
                    <mxGeometry x="280" y="157.5" width="120" height="60" as="geometry"/>
                </mxCell>
                <mxCell id="PHuZwR8dhzgnK9gtwOif-28" value="area" style="ellipse;whiteSpace=wrap;html=1;" parent="PHuZwR8dhzgnK9gtwOif-20" vertex="1">
                    <mxGeometry x="140" y="157.5" width="120" height="60" as="geometry"/>
                </mxCell>
                <mxCell id="PHuZwR8dhzgnK9gtwOif-29" value="&lt;u&gt;site_id&lt;/u&gt;" style="rhombus;whiteSpace=wrap;html=1;" parent="PHuZwR8dhzgnK9gtwOif-20" vertex="1">
                    <mxGeometry x="-100" y="147.5" width="80" height="80" as="geometry"/>
                </mxCell>
                <mxCell id="PHuZwR8dhzgnK9gtwOif-33" value="" style="endArrow=none;html=1;rounded=0;entryX=0.5;entryY=1;entryDx=0;entryDy=0;exitX=0.5;exitY=0;exitDx=0;exitDy=0;" parent="PHuZwR8dhzgnK9gtwOif-20" source="PHuZwR8dhzgnK9gtwOif-28" target="PHuZwR8dhzgnK9gtwOif-38" edge="1">
                    <mxGeometry width="50" height="50" relative="1" as="geometry">
                        <mxPoint x="160" y="152.5" as="sourcePoint"/>
                        <mxPoint x="210" y="102.5" as="targetPoint"/>
                    </mxGeometry>
                </mxCell>
                <mxCell id="PHuZwR8dhzgnK9gtwOif-34" value="" style="endArrow=none;html=1;rounded=0;entryX=0;entryY=1;entryDx=0;entryDy=0;exitX=0.5;exitY=0;exitDx=0;exitDy=0;" parent="PHuZwR8dhzgnK9gtwOif-20" source="PHuZwR8dhzgnK9gtwOif-26" target="PHuZwR8dhzgnK9gtwOif-38" edge="1">
                    <mxGeometry width="50" height="50" relative="1" as="geometry">
                        <mxPoint x="160" y="152.5" as="sourcePoint"/>
                        <mxPoint x="210" y="102.5" as="targetPoint"/>
                    </mxGeometry>
                </mxCell>
                <mxCell id="PHuZwR8dhzgnK9gtwOif-35" value="" style="endArrow=none;html=1;rounded=0;entryX=0;entryY=0.5;entryDx=0;entryDy=0;exitX=0.5;exitY=0;exitDx=0;exitDy=0;" parent="PHuZwR8dhzgnK9gtwOif-20" source="PHuZwR8dhzgnK9gtwOif-29" target="PHuZwR8dhzgnK9gtwOif-38" edge="1">
                    <mxGeometry width="50" height="50" relative="1" as="geometry">
                        <mxPoint x="160" y="152.5" as="sourcePoint"/>
                        <mxPoint x="210" y="102.5" as="targetPoint"/>
                    </mxGeometry>
                </mxCell>
                <mxCell id="PHuZwR8dhzgnK9gtwOif-36" value="" style="endArrow=none;html=1;rounded=0;entryX=0.879;entryY=0.826;entryDx=0;entryDy=0;exitX=0.5;exitY=0;exitDx=0;exitDy=0;entryPerimeter=0;" parent="PHuZwR8dhzgnK9gtwOif-20" source="PHuZwR8dhzgnK9gtwOif-27" target="PHuZwR8dhzgnK9gtwOif-38" edge="1">
                    <mxGeometry width="50" height="50" relative="1" as="geometry">
                        <mxPoint x="210" y="167.5" as="sourcePoint"/>
                        <mxPoint x="203" y="68.5" as="targetPoint"/>
                    </mxGeometry>
                </mxCell>
                <mxCell id="PHuZwR8dhzgnK9gtwOif-37" value="" style="group" parent="PHuZwR8dhzgnK9gtwOif-20" vertex="1" connectable="0">
                    <mxGeometry x="140" y="-2.5" width="120" height="60" as="geometry"/>
                </mxCell>
                <mxCell id="PHuZwR8dhzgnK9gtwOif-38" value="" style="ellipse;whiteSpace=wrap;html=1;" parent="PHuZwR8dhzgnK9gtwOif-37" vertex="1">
                    <mxGeometry width="120" height="60" as="geometry"/>
                </mxCell>
                <mxCell id="PHuZwR8dhzgnK9gtwOif-39" value="Site" style="ellipse;whiteSpace=wrap;html=1;" parent="PHuZwR8dhzgnK9gtwOif-37" vertex="1">
                    <mxGeometry x="5" y="5" width="110" height="50" as="geometry"/>
                </mxCell>
                <mxCell id="w3Yrm_y4okoA8DExeI4v-33" value="Manage" style="rhombus;whiteSpace=wrap;html=1;" parent="PHuZwR8dhzgnK9gtwOif-20" vertex="1">
                    <mxGeometry x="520" y="157.5" width="80" height="80" as="geometry"/>
                </mxCell>
                <mxCell id="w3Yrm_y4okoA8DExeI4v-34" value="" style="endArrow=none;html=1;rounded=0;entryX=0.92;entryY=0.228;entryDx=0;entryDy=0;exitX=0.5;exitY=0;exitDx=0;exitDy=0;entryPerimeter=0;" parent="PHuZwR8dhzgnK9gtwOif-20" source="w3Yrm_y4okoA8DExeI4v-33" target="PHuZwR8dhzgnK9gtwOif-38" edge="1">
                    <mxGeometry width="50" height="50" relative="1" as="geometry">
                        <mxPoint x="501" y="143" as="sourcePoint"/>
                        <mxPoint x="347" y="35" as="targetPoint"/>
                    </mxGeometry>
                </mxCell>
                <mxCell id="w3Yrm_y4okoA8DExeI4v-39" value="" style="endArrow=none;dashed=1;html=1;rounded=0;" parent="PHuZwR8dhzgnK9gtwOif-20" edge="1">
                    <mxGeometry width="50" height="50" relative="1" as="geometry">
                        <mxPoint x="530" y="204.18" as="sourcePoint"/>
                        <mxPoint x="590" y="204.31" as="targetPoint"/>
                        <Array as="points">
                            <mxPoint x="538.48" y="204.44"/>
                        </Array>
                    </mxGeometry>
                </mxCell>
                <mxCell id="w3Yrm_y4okoA8DExeI4v-91" value="Works" style="rhombus;whiteSpace=wrap;html=1;" parent="PHuZwR8dhzgnK9gtwOif-20" vertex="1">
                    <mxGeometry x="420" y="157.5" width="80" height="80" as="geometry"/>
                </mxCell>
                <mxCell id="w3Yrm_y4okoA8DExeI4v-92" value="" style="endArrow=none;dashed=1;html=1;rounded=0;" parent="PHuZwR8dhzgnK9gtwOif-20" edge="1">
                    <mxGeometry width="50" height="50" relative="1" as="geometry">
                        <mxPoint x="430" y="205" as="sourcePoint"/>
                        <mxPoint x="490" y="205.13" as="targetPoint"/>
                        <Array as="points">
                            <mxPoint x="438.48" y="205.26"/>
                        </Array>
                    </mxGeometry>
                </mxCell>
                <mxCell id="w3Yrm_y4okoA8DExeI4v-94" value="" style="endArrow=none;html=1;rounded=0;entryX=1;entryY=0.5;entryDx=0;entryDy=0;exitX=0.5;exitY=0;exitDx=0;exitDy=0;" parent="PHuZwR8dhzgnK9gtwOif-20" source="w3Yrm_y4okoA8DExeI4v-91" target="PHuZwR8dhzgnK9gtwOif-38" edge="1">
                    <mxGeometry width="50" height="50" relative="1" as="geometry">
                        <mxPoint x="570" y="168" as="sourcePoint"/>
                        <mxPoint x="269" y="33" as="targetPoint"/>
                    </mxGeometry>
                </mxCell>
                <mxCell id="w3Yrm_y4okoA8DExeI4v-282" style="edgeStyle=orthogonalEdgeStyle;rounded=0;orthogonalLoop=1;jettySize=auto;html=1;dashed=1;exitX=0.5;exitY=1;exitDx=0;exitDy=0;entryX=0.529;entryY=1.001;entryDx=0;entryDy=0;entryPerimeter=0;" parent="PHuZwR8dhzgnK9gtwOif-20" target="PHuZwR8dhzgnK9gtwOif-52" edge="1">
                    <mxGeometry relative="1" as="geometry">
                        <Array as="points">
                            <mxPoint x="560" y="468"/>
                            <mxPoint x="680" y="468"/>
                        </Array>
                        <mxPoint x="560" y="233.5" as="sourcePoint"/>
                        <mxPoint x="680" y="247.5" as="targetPoint"/>
                    </mxGeometry>
                </mxCell>
                <mxCell id="PHuZwR8dhzgnK9gtwOif-45" value="" style="group" parent="1" vertex="1" connectable="0">
                    <mxGeometry x="978" y="549.25" width="612" height="366.25" as="geometry"/>
                </mxCell>
                <mxCell id="PHuZwR8dhzgnK9gtwOif-46" value="name" style="ellipse;whiteSpace=wrap;html=1;" parent="PHuZwR8dhzgnK9gtwOif-45" vertex="1">
                    <mxGeometry x="90" y="147.5" width="120" height="60" as="geometry"/>
                </mxCell>
                <mxCell id="PHuZwR8dhzgnK9gtwOif-50" value="location" style="ellipse;whiteSpace=wrap;html=1;" parent="PHuZwR8dhzgnK9gtwOif-45" vertex="1">
                    <mxGeometry x="220" y="147.5" width="120" height="60" as="geometry"/>
                </mxCell>
                <mxCell id="PHuZwR8dhzgnK9gtwOif-51" value="description" style="ellipse;whiteSpace=wrap;html=1;" parent="PHuZwR8dhzgnK9gtwOif-45" vertex="1">
                    <mxGeometry x="350" y="147.5" width="120" height="60" as="geometry"/>
                </mxCell>
                <mxCell id="PHuZwR8dhzgnK9gtwOif-52" value="&lt;u&gt;habitat_id&lt;/u&gt;" style="rhombus;whiteSpace=wrap;html=1;" parent="PHuZwR8dhzgnK9gtwOif-45" vertex="1">
                    <mxGeometry y="137.5" width="80" height="80" as="geometry"/>
                </mxCell>
                <mxCell id="PHuZwR8dhzgnK9gtwOif-54" value="" style="endArrow=none;html=1;rounded=0;exitX=0.5;exitY=0;exitDx=0;exitDy=0;entryX=0.26;entryY=0.937;entryDx=0;entryDy=0;entryPerimeter=0;" parent="PHuZwR8dhzgnK9gtwOif-45" source="PHuZwR8dhzgnK9gtwOif-50" target="PHuZwR8dhzgnK9gtwOif-48" edge="1">
                    <mxGeometry width="50" height="50" relative="1" as="geometry">
                        <mxPoint x="280" y="-35" as="sourcePoint"/>
                        <mxPoint x="280" y="85" as="targetPoint"/>
                    </mxGeometry>
                </mxCell>
                <mxCell id="PHuZwR8dhzgnK9gtwOif-55" value="" style="endArrow=none;html=1;rounded=0;exitX=0.5;exitY=0;exitDx=0;exitDy=0;entryX=0.036;entryY=0.716;entryDx=0;entryDy=0;entryPerimeter=0;" parent="PHuZwR8dhzgnK9gtwOif-45" source="PHuZwR8dhzgnK9gtwOif-46" target="PHuZwR8dhzgnK9gtwOif-48" edge="1">
                    <mxGeometry width="50" height="50" relative="1" as="geometry">
                        <mxPoint x="280" y="-35" as="sourcePoint"/>
                        <mxPoint x="330" y="-85" as="targetPoint"/>
                    </mxGeometry>
                </mxCell>
                <mxCell id="PHuZwR8dhzgnK9gtwOif-56" value="" style="endArrow=none;html=1;rounded=0;exitX=0.5;exitY=0;exitDx=0;exitDy=0;entryX=0.058;entryY=0.25;entryDx=0;entryDy=0;entryPerimeter=0;" parent="PHuZwR8dhzgnK9gtwOif-45" source="PHuZwR8dhzgnK9gtwOif-52" target="PHuZwR8dhzgnK9gtwOif-48" edge="1">
                    <mxGeometry width="50" height="50" relative="1" as="geometry">
                        <mxPoint x="280" y="-35" as="sourcePoint"/>
                        <mxPoint x="330" y="-85" as="targetPoint"/>
                    </mxGeometry>
                </mxCell>
                <mxCell id="PHuZwR8dhzgnK9gtwOif-58" value="" style="endArrow=none;html=1;rounded=0;exitX=0.5;exitY=0;exitDx=0;exitDy=0;entryX=0.707;entryY=0.979;entryDx=0;entryDy=0;entryPerimeter=0;" parent="PHuZwR8dhzgnK9gtwOif-45" source="PHuZwR8dhzgnK9gtwOif-51" target="PHuZwR8dhzgnK9gtwOif-48" edge="1">
                    <mxGeometry width="50" height="50" relative="1" as="geometry">
                        <mxPoint x="170" y="165" as="sourcePoint"/>
                        <mxPoint x="257" y="66" as="targetPoint"/>
                    </mxGeometry>
                </mxCell>
                <mxCell id="PHuZwR8dhzgnK9gtwOif-59" value="" style="endArrow=none;html=1;rounded=0;exitX=0;exitY=0.5;exitDx=0;exitDy=0;entryX=0.5;entryY=1;entryDx=0;entryDy=0;" parent="PHuZwR8dhzgnK9gtwOif-45" source="PHuZwR8dhzgnK9gtwOif-62" target="PHuZwR8dhzgnK9gtwOif-46" edge="1">
                    <mxGeometry width="50" height="50" relative="1" as="geometry">
                        <mxPoint x="150" y="245" as="sourcePoint"/>
                        <mxPoint x="420" y="145" as="targetPoint"/>
                    </mxGeometry>
                </mxCell>
                <mxCell id="PHuZwR8dhzgnK9gtwOif-60" value="" style="endArrow=none;html=1;rounded=0;exitX=0;exitY=0.5;exitDx=0;exitDy=0;entryX=0.5;entryY=1;entryDx=0;entryDy=0;" parent="PHuZwR8dhzgnK9gtwOif-45" source="PHuZwR8dhzgnK9gtwOif-63" target="PHuZwR8dhzgnK9gtwOif-50" edge="1">
                    <mxGeometry width="50" height="50" relative="1" as="geometry">
                        <mxPoint x="280" y="245" as="sourcePoint"/>
                        <mxPoint x="160" y="215" as="targetPoint"/>
                    </mxGeometry>
                </mxCell>
                <mxCell id="PHuZwR8dhzgnK9gtwOif-61" value="" style="endArrow=none;html=1;rounded=0;exitX=0;exitY=0.5;exitDx=0;exitDy=0;entryX=0.5;entryY=1;entryDx=0;entryDy=0;" parent="PHuZwR8dhzgnK9gtwOif-45" source="PHuZwR8dhzgnK9gtwOif-64" target="PHuZwR8dhzgnK9gtwOif-51" edge="1">
                    <mxGeometry width="50" height="50" relative="1" as="geometry">
                        <mxPoint x="410" y="245" as="sourcePoint"/>
                        <mxPoint x="290" y="215" as="targetPoint"/>
                    </mxGeometry>
                </mxCell>
                <mxCell id="PHuZwR8dhzgnK9gtwOif-62" value="" style="rounded=0;whiteSpace=wrap;html=1;rotation=90;container=0;" parent="PHuZwR8dhzgnK9gtwOif-45" vertex="1">
                    <mxGeometry x="125" y="321.25" width="50" height="40" as="geometry"/>
                </mxCell>
                <mxCell id="PHuZwR8dhzgnK9gtwOif-63" value="" style="rounded=0;whiteSpace=wrap;html=1;rotation=90;container=0;" parent="PHuZwR8dhzgnK9gtwOif-45" vertex="1">
                    <mxGeometry x="255" y="321.25" width="50" height="40" as="geometry"/>
                </mxCell>
                <mxCell id="PHuZwR8dhzgnK9gtwOif-64" value="" style="rounded=0;whiteSpace=wrap;html=1;rotation=90;container=0;" parent="PHuZwR8dhzgnK9gtwOif-45" vertex="1">
                    <mxGeometry x="385" y="321.25" width="50" height="40" as="geometry"/>
                </mxCell>
                <mxCell id="PHuZwR8dhzgnK9gtwOif-47" value="" style="group" parent="PHuZwR8dhzgnK9gtwOif-45" vertex="1" connectable="0">
                    <mxGeometry x="265" y="-0.01" width="120" height="60" as="geometry"/>
                </mxCell>
                <mxCell id="PHuZwR8dhzgnK9gtwOif-48" value="" style="ellipse;whiteSpace=wrap;html=1;" parent="PHuZwR8dhzgnK9gtwOif-47" vertex="1">
                    <mxGeometry width="120" height="60" as="geometry"/>
                </mxCell>
                <mxCell id="PHuZwR8dhzgnK9gtwOif-49" value="Habitat" style="ellipse;whiteSpace=wrap;html=1;" parent="PHuZwR8dhzgnK9gtwOif-47" vertex="1">
                    <mxGeometry x="5" y="5" width="110" height="50" as="geometry"/>
                </mxCell>
                <mxCell id="w3Yrm_y4okoA8DExeI4v-35" value="capacity" style="ellipse;whiteSpace=wrap;html=1;" parent="PHuZwR8dhzgnK9gtwOif-45" vertex="1">
                    <mxGeometry x="492" y="147.5" width="120" height="60" as="geometry"/>
                </mxCell>
                <mxCell id="w3Yrm_y4okoA8DExeI4v-37" value="" style="endArrow=none;html=1;rounded=0;exitX=0;exitY=0.5;exitDx=0;exitDy=0;entryX=0.5;entryY=1;entryDx=0;entryDy=0;" parent="PHuZwR8dhzgnK9gtwOif-45" source="w3Yrm_y4okoA8DExeI4v-38" target="w3Yrm_y4okoA8DExeI4v-35" edge="1">
                    <mxGeometry width="50" height="50" relative="1" as="geometry">
                        <mxPoint x="552" y="245" as="sourcePoint"/>
                        <mxPoint x="432" y="215" as="targetPoint"/>
                    </mxGeometry>
                </mxCell>
                <mxCell id="w3Yrm_y4okoA8DExeI4v-38" value="" style="rounded=0;whiteSpace=wrap;html=1;rotation=90;container=0;" parent="PHuZwR8dhzgnK9gtwOif-45" vertex="1">
                    <mxGeometry x="527" y="321.25" width="50" height="40" as="geometry"/>
                </mxCell>
                <mxCell id="w3Yrm_y4okoA8DExeI4v-36" value="" style="endArrow=none;html=1;rounded=0;exitX=0.5;exitY=0;exitDx=0;exitDy=0;entryX=0.969;entryY=0.688;entryDx=0;entryDy=0;entryPerimeter=0;" parent="PHuZwR8dhzgnK9gtwOif-45" source="w3Yrm_y4okoA8DExeI4v-35" target="PHuZwR8dhzgnK9gtwOif-48" edge="1">
                    <mxGeometry width="50" height="50" relative="1" as="geometry">
                        <mxPoint x="380" y="168.99" as="sourcePoint"/>
                        <mxPoint x="532" y="54.99000000000001" as="targetPoint"/>
                    </mxGeometry>
                </mxCell>
                <mxCell id="PHuZwR8dhzgnK9gtwOif-148" value="" style="group" parent="1" vertex="1" connectable="0">
                    <mxGeometry x="3480" y="560" width="490" height="381.75" as="geometry"/>
                </mxCell>
                <mxCell id="PHuZwR8dhzgnK9gtwOif-149" value="name" style="ellipse;whiteSpace=wrap;html=1;container=0;" parent="PHuZwR8dhzgnK9gtwOif-148" vertex="1">
                    <mxGeometry x="100" y="153.26" width="120" height="60" as="geometry"/>
                </mxCell>
                <mxCell id="PHuZwR8dhzgnK9gtwOif-151" value="&lt;u&gt;user_id&lt;/u&gt;" style="rhombus;whiteSpace=wrap;html=1;container=0;" parent="PHuZwR8dhzgnK9gtwOif-148" vertex="1">
                    <mxGeometry x="-15" y="141.38" width="80" height="80" as="geometry"/>
                </mxCell>
                <mxCell id="PHuZwR8dhzgnK9gtwOif-153" value="" style="endArrow=none;html=1;rounded=0;exitX=0.5;exitY=0;exitDx=0;exitDy=0;entryX=0.083;entryY=0.771;entryDx=0;entryDy=0;entryPerimeter=0;" parent="PHuZwR8dhzgnK9gtwOif-148" source="PHuZwR8dhzgnK9gtwOif-149" target="PHuZwR8dhzgnK9gtwOif-160" edge="1">
                    <mxGeometry width="50" height="50" relative="1" as="geometry">
                        <mxPoint x="160" y="-7" as="sourcePoint"/>
                        <mxPoint x="210" y="-57" as="targetPoint"/>
                    </mxGeometry>
                </mxCell>
                <mxCell id="PHuZwR8dhzgnK9gtwOif-154" value="" style="endArrow=none;html=1;rounded=0;exitX=0.5;exitY=0;exitDx=0;exitDy=0;entryX=0.055;entryY=0.337;entryDx=0;entryDy=0;entryPerimeter=0;" parent="PHuZwR8dhzgnK9gtwOif-148" source="PHuZwR8dhzgnK9gtwOif-151" target="PHuZwR8dhzgnK9gtwOif-160" edge="1">
                    <mxGeometry width="50" height="50" relative="1" as="geometry">
                        <mxPoint x="160" y="-7" as="sourcePoint"/>
                        <mxPoint x="210" y="-57" as="targetPoint"/>
                    </mxGeometry>
                </mxCell>
                <mxCell id="PHuZwR8dhzgnK9gtwOif-157" value="" style="endArrow=none;html=1;rounded=0;exitX=0.5;exitY=0;exitDx=0;exitDy=0;entryX=0.5;entryY=1;entryDx=0;entryDy=0;" parent="PHuZwR8dhzgnK9gtwOif-148" source="w3Yrm_y4okoA8DExeI4v-51" target="PHuZwR8dhzgnK9gtwOif-149" edge="1">
                    <mxGeometry width="50" height="50" relative="1" as="geometry">
                        <mxPoint x="160" y="320.13" as="sourcePoint"/>
                        <mxPoint x="285" y="166.38" as="targetPoint"/>
                    </mxGeometry>
                </mxCell>
                <mxCell id="w3Yrm_y4okoA8DExeI4v-51" value="first_name" style="ellipse;whiteSpace=wrap;html=1;container=0;" parent="PHuZwR8dhzgnK9gtwOif-148" vertex="1">
                    <mxGeometry y="325.13" width="120" height="60" as="geometry"/>
                </mxCell>
                <mxCell id="w3Yrm_y4okoA8DExeI4v-52" value="last_name" style="ellipse;whiteSpace=wrap;html=1;container=0;" parent="PHuZwR8dhzgnK9gtwOif-148" vertex="1">
                    <mxGeometry x="190" y="325.13" width="120" height="60" as="geometry"/>
                </mxCell>
                <mxCell id="w3Yrm_y4okoA8DExeI4v-53" value="" style="endArrow=none;html=1;rounded=0;entryX=0.5;entryY=1;entryDx=0;entryDy=0;" parent="PHuZwR8dhzgnK9gtwOif-148" source="w3Yrm_y4okoA8DExeI4v-52" target="PHuZwR8dhzgnK9gtwOif-149" edge="1">
                    <mxGeometry width="50" height="50" relative="1" as="geometry">
                        <mxPoint x="50" y="325.38" as="sourcePoint"/>
                        <mxPoint x="170" y="223.38" as="targetPoint"/>
                    </mxGeometry>
                </mxCell>
                <mxCell id="PHuZwR8dhzgnK9gtwOif-159" value="" style="group" parent="PHuZwR8dhzgnK9gtwOif-148" vertex="1" connectable="0">
                    <mxGeometry x="350" width="120" height="60" as="geometry"/>
                </mxCell>
                <mxCell id="PHuZwR8dhzgnK9gtwOif-160" value="" style="ellipse;whiteSpace=wrap;html=1;container=0;" parent="PHuZwR8dhzgnK9gtwOif-159" vertex="1">
                    <mxGeometry width="120" height="60" as="geometry"/>
                </mxCell>
                <mxCell id="PHuZwR8dhzgnK9gtwOif-161" value="User" style="ellipse;whiteSpace=wrap;html=1;container=0;" parent="PHuZwR8dhzgnK9gtwOif-159" vertex="1">
                    <mxGeometry x="5" y="5" width="110" height="50" as="geometry"/>
                </mxCell>
                <mxCell id="PHuZwR8dhzgnK9gtwOif-150" value="sex" style="ellipse;whiteSpace=wrap;html=1;container=0;" parent="PHuZwR8dhzgnK9gtwOif-148" vertex="1">
                    <mxGeometry x="300" y="153.26" width="120" height="60" as="geometry"/>
                </mxCell>
                <mxCell id="PHuZwR8dhzgnK9gtwOif-158" value="" style="endArrow=none;html=1;rounded=0;exitX=0;exitY=0.5;exitDx=0;exitDy=0;entryX=0.5;entryY=1;entryDx=0;entryDy=0;" parent="PHuZwR8dhzgnK9gtwOif-148" source="PHuZwR8dhzgnK9gtwOif-156" target="PHuZwR8dhzgnK9gtwOif-150" edge="1">
                    <mxGeometry width="50" height="50" relative="1" as="geometry">
                        <mxPoint x="80" y="275.76" as="sourcePoint"/>
                        <mxPoint x="80" y="235.76" as="targetPoint"/>
                    </mxGeometry>
                </mxCell>
                <mxCell id="PHuZwR8dhzgnK9gtwOif-156" value="" style="rounded=0;whiteSpace=wrap;html=1;rotation=90;container=0;" parent="PHuZwR8dhzgnK9gtwOif-148" vertex="1">
                    <mxGeometry x="335" y="335.13" width="50" height="40" as="geometry"/>
                </mxCell>
                <mxCell id="PHuZwR8dhzgnK9gtwOif-152" value="" style="endArrow=none;html=1;rounded=0;exitX=0.5;exitY=0;exitDx=0;exitDy=0;entryX=0.5;entryY=1;entryDx=0;entryDy=0;" parent="PHuZwR8dhzgnK9gtwOif-148" source="PHuZwR8dhzgnK9gtwOif-150" target="PHuZwR8dhzgnK9gtwOif-160" edge="1">
                    <mxGeometry width="50" height="50" relative="1" as="geometry">
                        <mxPoint x="160" y="-7" as="sourcePoint"/>
                        <mxPoint x="160" y="113" as="targetPoint"/>
                    </mxGeometry>
                </mxCell>
                <mxCell id="PHuZwR8dhzgnK9gtwOif-162" value="" style="endArrow=none;html=1;rounded=0;entryX=0.442;entryY=1.003;entryDx=0;entryDy=0;entryPerimeter=0;exitX=0.5;exitY=0;exitDx=0;exitDy=0;" parent="1" source="PHuZwR8dhzgnK9gtwOif-78" target="PHuZwR8dhzgnK9gtwOif-1" edge="1">
                    <mxGeometry width="50" height="50" relative="1" as="geometry">
                        <mxPoint x="1670" y="530" as="sourcePoint"/>
                        <mxPoint x="2320" y="170" as="targetPoint"/>
                    </mxGeometry>
                </mxCell>
                <mxCell id="PHuZwR8dhzgnK9gtwOif-163" value="" style="endArrow=none;html=1;rounded=0;entryX=0.79;entryY=0.9;entryDx=0;entryDy=0;entryPerimeter=0;exitX=0.5;exitY=0;exitDx=0;exitDy=0;" parent="1" source="PHuZwR8dhzgnK9gtwOif-104" target="PHuZwR8dhzgnK9gtwOif-1" edge="1">
                    <mxGeometry width="50" height="50" relative="1" as="geometry">
                        <mxPoint x="2350" y="530" as="sourcePoint"/>
                        <mxPoint x="2019" y="260" as="targetPoint"/>
                    </mxGeometry>
                </mxCell>
                <mxCell id="PHuZwR8dhzgnK9gtwOif-164" value="" style="endArrow=none;html=1;rounded=0;entryX=0.991;entryY=0.612;entryDx=0;entryDy=0;exitX=0.5;exitY=0;exitDx=0;exitDy=0;entryPerimeter=0;" parent="1" source="PHuZwR8dhzgnK9gtwOif-142" target="PHuZwR8dhzgnK9gtwOif-1" edge="1">
                    <mxGeometry width="50" height="50" relative="1" as="geometry">
                        <mxPoint x="3000" y="510" as="sourcePoint"/>
                        <mxPoint x="2066" y="260" as="targetPoint"/>
                    </mxGeometry>
                </mxCell>
                <mxCell id="PHuZwR8dhzgnK9gtwOif-166" value="" style="endArrow=none;html=1;rounded=0;entryX=0.946;entryY=0.285;entryDx=0;entryDy=0;entryPerimeter=0;exitX=0.5;exitY=0;exitDx=0;exitDy=0;" parent="1" source="PHuZwR8dhzgnK9gtwOif-160" target="PHuZwR8dhzgnK9gtwOif-1" edge="1">
                    <mxGeometry width="50" height="50" relative="1" as="geometry">
                        <mxPoint x="3570" y="500" as="sourcePoint"/>
                        <mxPoint x="2080" y="230" as="targetPoint"/>
                    </mxGeometry>
                </mxCell>
                <mxCell id="PHuZwR8dhzgnK9gtwOif-167" value="" style="endArrow=none;html=1;rounded=0;entryX=0.159;entryY=0.879;entryDx=0;entryDy=0;exitX=0.5;exitY=0;exitDx=0;exitDy=0;entryPerimeter=0;" parent="1" source="PHuZwR8dhzgnK9gtwOif-48" target="PHuZwR8dhzgnK9gtwOif-1" edge="1">
                    <mxGeometry width="50" height="50" relative="1" as="geometry">
                        <mxPoint x="1680" y="540" as="sourcePoint"/>
                        <mxPoint x="2019" y="260" as="targetPoint"/>
                    </mxGeometry>
                </mxCell>
                <mxCell id="PHuZwR8dhzgnK9gtwOif-168" value="" style="endArrow=none;html=1;rounded=0;entryX=0.01;entryY=0.624;entryDx=0;entryDy=0;exitX=0.5;exitY=0;exitDx=0;exitDy=0;entryPerimeter=0;" parent="1" source="PHuZwR8dhzgnK9gtwOif-38" target="PHuZwR8dhzgnK9gtwOif-1" edge="1">
                    <mxGeometry width="50" height="50" relative="1" as="geometry">
                        <mxPoint x="980" y="540" as="sourcePoint"/>
                        <mxPoint x="1997" y="251" as="targetPoint"/>
                    </mxGeometry>
                </mxCell>
                <mxCell id="PHuZwR8dhzgnK9gtwOif-169" value="" style="endArrow=none;html=1;rounded=0;entryX=0.022;entryY=0.343;entryDx=0;entryDy=0;exitX=0.5;exitY=0;exitDx=0;exitDy=0;entryPerimeter=0;" parent="1" source="PHuZwR8dhzgnK9gtwOif-8" target="PHuZwR8dhzgnK9gtwOif-1" edge="1">
                    <mxGeometry width="50" height="50" relative="1" as="geometry">
                        <mxPoint x="-10" y="430" as="sourcePoint"/>
                        <mxPoint x="1980" y="230" as="targetPoint"/>
                    </mxGeometry>
                </mxCell>
                <mxCell id="w3Yrm_y4okoA8DExeI4v-7" value="" style="group" parent="1" vertex="1" connectable="0">
                    <mxGeometry x="110" y="678.13" width="120" height="60" as="geometry"/>
                </mxCell>
                <mxCell id="w3Yrm_y4okoA8DExeI4v-8" value="" style="ellipse;whiteSpace=wrap;html=1;" parent="w3Yrm_y4okoA8DExeI4v-7" vertex="1">
                    <mxGeometry x="-35" y="6.87" width="120" height="60" as="geometry"/>
                </mxCell>
                <mxCell id="w3Yrm_y4okoA8DExeI4v-9" value="post" style="ellipse;whiteSpace=wrap;html=1;" parent="w3Yrm_y4okoA8DExeI4v-7" vertex="1">
                    <mxGeometry x="-30" y="11.870000000000001" width="110" height="50" as="geometry"/>
                </mxCell>
                <mxCell id="w3Yrm_y4okoA8DExeI4v-11" value="" style="endArrow=none;html=1;rounded=0;entryX=0.489;entryY=1.061;entryDx=0;entryDy=0;entryPerimeter=0;exitX=-0.012;exitY=0.538;exitDx=0;exitDy=0;exitPerimeter=0;" parent="1" source="w3Yrm_y4okoA8DExeI4v-3" target="w3Yrm_y4okoA8DExeI4v-9" edge="1">
                    <mxGeometry width="50" height="50" relative="1" as="geometry">
                        <mxPoint x="130" y="806.87" as="sourcePoint"/>
                        <mxPoint x="135" y="756.87" as="targetPoint"/>
                    </mxGeometry>
                </mxCell>
                <mxCell id="w3Yrm_y4okoA8DExeI4v-12" value="" style="endArrow=none;html=1;rounded=0;entryX=0.958;entryY=0.771;entryDx=0;entryDy=0;exitX=0.542;exitY=-0.005;exitDx=0;exitDy=0;exitPerimeter=0;entryPerimeter=0;" parent="1" source="w3Yrm_y4okoA8DExeI4v-8" target="PHuZwR8dhzgnK9gtwOif-8" edge="1">
                    <mxGeometry width="50" height="50" relative="1" as="geometry">
                        <mxPoint x="170" y="675" as="sourcePoint"/>
                        <mxPoint x="30" y="555" as="targetPoint"/>
                    </mxGeometry>
                </mxCell>
                <mxCell id="PHuZwR8dhzgnK9gtwOif-53" value="Occupy" style="rhombus;whiteSpace=wrap;html=1;" parent="1" vertex="1">
                    <mxGeometry x="1620" y="692.37" width="80" height="80" as="geometry"/>
                </mxCell>
                <mxCell id="PHuZwR8dhzgnK9gtwOif-57" value="" style="endArrow=none;html=1;rounded=0;exitX=0.5;exitY=0;exitDx=0;exitDy=0;entryX=0.976;entryY=0.329;entryDx=0;entryDy=0;entryPerimeter=0;" parent="1" source="PHuZwR8dhzgnK9gtwOif-53" target="PHuZwR8dhzgnK9gtwOif-48" edge="1">
                    <mxGeometry width="50" height="50" relative="1" as="geometry">
                        <mxPoint x="1220" y="709.24" as="sourcePoint"/>
                        <mxPoint x="1450" y="579.24" as="targetPoint"/>
                    </mxGeometry>
                </mxCell>
                <mxCell id="PHuZwR8dhzgnK9gtwOif-65" value="" style="endArrow=none;dashed=1;html=1;rounded=0;" parent="1" edge="1">
                    <mxGeometry width="50" height="50" relative="1" as="geometry">
                        <mxPoint x="1630" y="739.11" as="sourcePoint"/>
                        <mxPoint x="1690" y="739.24" as="targetPoint"/>
                        <Array as="points">
                            <mxPoint x="1638.48" y="739.37"/>
                        </Array>
                    </mxGeometry>
                </mxCell>
                <mxCell id="w3Yrm_y4okoA8DExeI4v-54" value="credentials" style="ellipse;whiteSpace=wrap;html=1;container=0;" parent="1" vertex="1">
                    <mxGeometry x="3950" y="712.37" width="120" height="60" as="geometry"/>
                </mxCell>
                <mxCell id="w3Yrm_y4okoA8DExeI4v-56" value="password" style="ellipse;whiteSpace=wrap;html=1;container=0;" parent="1" vertex="1">
                    <mxGeometry x="4030" y="881.75" width="120" height="60" as="geometry"/>
                </mxCell>
                <mxCell id="w3Yrm_y4okoA8DExeI4v-57" value="" style="endArrow=none;html=1;rounded=0;exitX=0.5;exitY=0;exitDx=0;exitDy=0;entryX=0.5;entryY=1;entryDx=0;entryDy=0;" parent="1" source="w3Yrm_y4okoA8DExeI4v-55" target="w3Yrm_y4okoA8DExeI4v-54" edge="1">
                    <mxGeometry width="50" height="50" relative="1" as="geometry">
                        <mxPoint x="3898.000000000001" y="862.1999999999999" as="sourcePoint"/>
                        <mxPoint x="3885" y="763.51" as="targetPoint"/>
                    </mxGeometry>
                </mxCell>
                <mxCell id="w3Yrm_y4okoA8DExeI4v-76" value="" style="endArrow=none;html=1;rounded=0;exitX=0.5;exitY=0;exitDx=0;exitDy=0;entryX=0.5;entryY=1;entryDx=0;entryDy=0;" parent="1" source="w3Yrm_y4okoA8DExeI4v-56" target="w3Yrm_y4okoA8DExeI4v-54" edge="1">
                    <mxGeometry width="50" height="50" relative="1" as="geometry">
                        <mxPoint x="3908" y="872.38" as="sourcePoint"/>
                        <mxPoint x="3925" y="770.38" as="targetPoint"/>
                    </mxGeometry>
                </mxCell>
                <mxCell id="w3Yrm_y4okoA8DExeI4v-77" value="" style="endArrow=none;html=1;rounded=0;exitX=0.5;exitY=0;exitDx=0;exitDy=0;entryX=1;entryY=1;entryDx=0;entryDy=0;" parent="1" source="w3Yrm_y4okoA8DExeI4v-54" target="PHuZwR8dhzgnK9gtwOif-160" edge="1">
                    <mxGeometry width="50" height="50" relative="1" as="geometry">
                        <mxPoint x="3700" y="731" as="sourcePoint"/>
                        <mxPoint x="3597" y="621" as="targetPoint"/>
                    </mxGeometry>
                </mxCell>
                <mxCell id="w3Yrm_y4okoA8DExeI4v-78" value="address" style="ellipse;whiteSpace=wrap;html=1;container=0;" parent="1" vertex="1">
                    <mxGeometry x="4415" y="712.37" width="120" height="60" as="geometry"/>
                </mxCell>
                <mxCell id="w3Yrm_y4okoA8DExeI4v-79" value="post_code" style="ellipse;whiteSpace=wrap;html=1;container=0;" parent="1" vertex="1">
                    <mxGeometry x="4190" y="881.75" width="120" height="60" as="geometry"/>
                </mxCell>
                <mxCell id="w3Yrm_y4okoA8DExeI4v-80" value="city" style="ellipse;whiteSpace=wrap;html=1;container=0;" parent="1" vertex="1">
                    <mxGeometry x="4341" y="881.75" width="120" height="60" as="geometry"/>
                </mxCell>
                <mxCell id="w3Yrm_y4okoA8DExeI4v-81" value="" style="endArrow=none;html=1;rounded=0;exitX=0.5;exitY=0;exitDx=0;exitDy=0;entryX=0.5;entryY=1;entryDx=0;entryDy=0;" parent="1" source="w3Yrm_y4okoA8DExeI4v-79" target="w3Yrm_y4okoA8DExeI4v-78" edge="1">
                    <mxGeometry width="50" height="50" relative="1" as="geometry">
                        <mxPoint x="4252.000000000001" y="876.81" as="sourcePoint"/>
                        <mxPoint x="4239" y="778.12" as="targetPoint"/>
                    </mxGeometry>
                </mxCell>
                <mxCell id="w3Yrm_y4okoA8DExeI4v-82" value="" style="endArrow=none;html=1;rounded=0;exitX=0.5;exitY=0;exitDx=0;exitDy=0;entryX=0.5;entryY=1;entryDx=0;entryDy=0;" parent="1" source="w3Yrm_y4okoA8DExeI4v-80" target="w3Yrm_y4okoA8DExeI4v-78" edge="1">
                    <mxGeometry width="50" height="50" relative="1" as="geometry">
                        <mxPoint x="4262" y="886.99" as="sourcePoint"/>
                        <mxPoint x="4279" y="784.99" as="targetPoint"/>
                    </mxGeometry>
                </mxCell>
                <mxCell id="w3Yrm_y4okoA8DExeI4v-83" value="number" style="ellipse;whiteSpace=wrap;html=1;container=0;" parent="1" vertex="1">
                    <mxGeometry x="4620" y="881.75" width="120" height="60" as="geometry"/>
                </mxCell>
                <mxCell id="w3Yrm_y4okoA8DExeI4v-84" value="street" style="ellipse;whiteSpace=wrap;html=1;container=0;" parent="1" vertex="1">
                    <mxGeometry x="4480" y="881.75" width="120" height="60" as="geometry"/>
                </mxCell>
                <mxCell id="w3Yrm_y4okoA8DExeI4v-85" value="" style="endArrow=none;html=1;rounded=0;exitX=0.5;exitY=0;exitDx=0;exitDy=0;" parent="1" source="w3Yrm_y4okoA8DExeI4v-84" edge="1">
                    <mxGeometry width="50" height="50" relative="1" as="geometry">
                        <mxPoint x="4365" y="900.24" as="sourcePoint"/>
                        <mxPoint x="4474" y="774.24" as="targetPoint"/>
                    </mxGeometry>
                </mxCell>
                <mxCell id="w3Yrm_y4okoA8DExeI4v-86" value="" style="endArrow=none;html=1;rounded=0;exitX=0.5;exitY=0;exitDx=0;exitDy=0;" parent="1" source="w3Yrm_y4okoA8DExeI4v-83" edge="1">
                    <mxGeometry width="50" height="50" relative="1" as="geometry">
                        <mxPoint x="4504" y="900.24" as="sourcePoint"/>
                        <mxPoint x="4474" y="774.24" as="targetPoint"/>
                    </mxGeometry>
                </mxCell>
                <mxCell id="w3Yrm_y4okoA8DExeI4v-87" value="" style="endArrow=none;html=1;rounded=0;exitX=0.5;exitY=0;exitDx=0;exitDy=0;entryX=0.987;entryY=0.613;entryDx=0;entryDy=0;entryPerimeter=0;" parent="1" source="w3Yrm_y4okoA8DExeI4v-78" target="PHuZwR8dhzgnK9gtwOif-160" edge="1">
                    <mxGeometry width="50" height="50" relative="1" as="geometry">
                        <mxPoint x="3985" y="716.25" as="sourcePoint"/>
                        <mxPoint x="3840" y="600" as="targetPoint"/>
                    </mxGeometry>
                </mxCell>
                <mxCell id="w3Yrm_y4okoA8DExeI4v-88" value="Favor" style="rhombus;whiteSpace=wrap;html=1;container=0;" parent="1" vertex="1">
                    <mxGeometry x="4730" y="692.37" width="80" height="80" as="geometry"/>
                </mxCell>
                <mxCell id="w3Yrm_y4okoA8DExeI4v-89" value="" style="endArrow=none;dashed=1;html=1;rounded=0;" parent="1" edge="1">
                    <mxGeometry width="50" height="50" relative="1" as="geometry">
                        <mxPoint x="4742.5" y="739.88" as="sourcePoint"/>
                        <mxPoint x="4797.5" y="739.78" as="targetPoint"/>
                        <Array as="points">
                            <mxPoint x="4797.5" y="739.37"/>
                        </Array>
                    </mxGeometry>
                </mxCell>
                <mxCell id="PHuZwR8dhzgnK9gtwOif-17" value="" style="rounded=0;whiteSpace=wrap;html=1;rotation=90;container=0;" parent="1" vertex="1">
                    <mxGeometry x="-305" y="858.75" width="50" height="40" as="geometry"/>
                </mxCell>
                <mxCell id="PHuZwR8dhzgnK9gtwOif-18" value="" style="rounded=0;whiteSpace=wrap;html=1;rotation=90;container=0;" parent="1" vertex="1">
                    <mxGeometry x="-175" y="858.75" width="50" height="40" as="geometry"/>
                </mxCell>
                <mxCell id="PHuZwR8dhzgnK9gtwOif-19" value="" style="rounded=0;whiteSpace=wrap;html=1;rotation=90;container=0;" parent="1" vertex="1">
                    <mxGeometry x="-35" y="858.75" width="50" height="40" as="geometry"/>
                </mxCell>
                <mxCell id="PHuZwR8dhzgnK9gtwOif-30" value="" style="endArrow=none;html=1;rounded=0;entryX=0.5;entryY=1;entryDx=0;entryDy=0;" parent="1" target="PHuZwR8dhzgnK9gtwOif-26" edge="1">
                    <mxGeometry width="50" height="50" relative="1" as="geometry">
                        <mxPoint x="410" y="868.75" as="sourcePoint"/>
                        <mxPoint x="410" y="810" as="targetPoint"/>
                    </mxGeometry>
                </mxCell>
                <mxCell id="PHuZwR8dhzgnK9gtwOif-31" value="" style="endArrow=none;html=1;rounded=0;entryX=0.5;entryY=1;entryDx=0;entryDy=0;" parent="1" target="PHuZwR8dhzgnK9gtwOif-28" edge="1">
                    <mxGeometry width="50" height="50" relative="1" as="geometry">
                        <mxPoint x="540" y="868.75" as="sourcePoint"/>
                        <mxPoint x="540" y="810" as="targetPoint"/>
                    </mxGeometry>
                </mxCell>
                <mxCell id="PHuZwR8dhzgnK9gtwOif-32" value="" style="endArrow=none;html=1;rounded=0;entryX=0.5;entryY=1;entryDx=0;entryDy=0;" parent="1" target="PHuZwR8dhzgnK9gtwOif-27" edge="1">
                    <mxGeometry width="50" height="50" relative="1" as="geometry">
                        <mxPoint x="680" y="868.75" as="sourcePoint"/>
                        <mxPoint x="680.0000000000005" y="810" as="targetPoint"/>
                    </mxGeometry>
                </mxCell>
                <mxCell id="PHuZwR8dhzgnK9gtwOif-40" value="" style="rounded=0;whiteSpace=wrap;html=1;rotation=90;container=0;" parent="1" vertex="1">
                    <mxGeometry x="385" y="868.75" width="50" height="40" as="geometry"/>
                </mxCell>
                <mxCell id="PHuZwR8dhzgnK9gtwOif-41" value="" style="rounded=0;whiteSpace=wrap;html=1;rotation=90;container=0;" parent="1" vertex="1">
                    <mxGeometry x="515" y="868.75" width="50" height="40" as="geometry"/>
                </mxCell>
                <mxCell id="PHuZwR8dhzgnK9gtwOif-42" value="" style="rounded=0;whiteSpace=wrap;html=1;rotation=90;container=0;" parent="1" vertex="1">
                    <mxGeometry x="655" y="868.75" width="50" height="40" as="geometry"/>
                </mxCell>
                <mxCell id="w3Yrm_y4okoA8DExeI4v-3" value="" style="rounded=0;whiteSpace=wrap;html=1;rotation=90;container=0;" parent="1" vertex="1">
                    <mxGeometry x="110" y="860" width="50" height="40" as="geometry"/>
                </mxCell>
                <mxCell id="PHuZwR8dhzgnK9gtwOif-12" value="" style="endArrow=none;html=1;rounded=0;entryX=0.5;entryY=1;entryDx=0;entryDy=0;exitX=0;exitY=0.5;exitDx=0;exitDy=0;" parent="1" source="PHuZwR8dhzgnK9gtwOif-19" target="PHuZwR8dhzgnK9gtwOif-4" edge="1">
                    <mxGeometry width="50" height="50" relative="1" as="geometry">
                        <mxPoint x="-10" y="798.75" as="sourcePoint"/>
                        <mxPoint x="-140" y="753.75" as="targetPoint"/>
                    </mxGeometry>
                </mxCell>
                <mxCell id="PHuZwR8dhzgnK9gtwOif-11" value="" style="endArrow=none;html=1;rounded=0;entryX=0.5;entryY=1;entryDx=0;entryDy=0;exitX=0;exitY=0.5;exitDx=0;exitDy=0;" parent="1" source="PHuZwR8dhzgnK9gtwOif-18" target="PHuZwR8dhzgnK9gtwOif-5" edge="1">
                    <mxGeometry width="50" height="50" relative="1" as="geometry">
                        <mxPoint x="-150" y="798.75" as="sourcePoint"/>
                        <mxPoint x="-270" y="753.75" as="targetPoint"/>
                    </mxGeometry>
                </mxCell>
                <mxCell id="PHuZwR8dhzgnK9gtwOif-10" value="" style="endArrow=none;html=1;rounded=0;entryX=0.5;entryY=1;entryDx=0;entryDy=0;exitX=0;exitY=0.5;exitDx=0;exitDy=0;" parent="1" source="PHuZwR8dhzgnK9gtwOif-17" target="PHuZwR8dhzgnK9gtwOif-3" edge="1">
                    <mxGeometry width="50" height="50" relative="1" as="geometry">
                        <mxPoint x="-280" y="798.75" as="sourcePoint"/>
                        <mxPoint x="50" y="628.75" as="targetPoint"/>
                    </mxGeometry>
                </mxCell>
                <mxCell id="w3Yrm_y4okoA8DExeI4v-285" style="edgeStyle=orthogonalEdgeStyle;rounded=0;orthogonalLoop=1;jettySize=auto;html=1;dashed=1;exitX=0.5;exitY=1;exitDx=0;exitDy=0;entryX=0.5;entryY=1;entryDx=0;entryDy=0;" parent="1" source="w3Yrm_y4okoA8DExeI4v-88" target="PHuZwR8dhzgnK9gtwOif-69" edge="1">
                    <mxGeometry relative="1" as="geometry">
                        <Array as="points">
                            <mxPoint x="4770" y="1000"/>
                            <mxPoint x="1840" y="1000"/>
                        </Array>
                        <mxPoint x="4500" y="795.3800000000001" as="sourcePoint"/>
                        <mxPoint x="3170" y="984" as="targetPoint"/>
                    </mxGeometry>
                </mxCell>
                <mxCell id="w3Yrm_y4okoA8DExeI4v-468" style="edgeStyle=orthogonalEdgeStyle;rounded=0;orthogonalLoop=1;jettySize=auto;html=1;dashed=1;exitX=0.5;exitY=1;exitDx=0;exitDy=0;entryX=1;entryY=1;entryDx=0;entryDy=0;" parent="1" source="PHuZwR8dhzgnK9gtwOif-133" edge="1" target="PHuZwR8dhzgnK9gtwOif-69">
                    <mxGeometry relative="1" as="geometry">
                        <Array as="points">
                            <mxPoint x="3285" y="980"/>
                            <mxPoint x="1860" y="980"/>
                        </Array>
                        <mxPoint x="2655" y="804.38" as="sourcePoint"/>
                        <mxPoint x="1840" y="770" as="targetPoint"/>
                    </mxGeometry>
                </mxCell>
                <mxCell id="w3Yrm_y4okoA8DExeI4v-470" value="" style="endArrow=none;html=1;rounded=0;exitX=0.5;exitY=0;exitDx=0;exitDy=0;entryX=0.917;entryY=0.228;entryDx=0;entryDy=0;entryPerimeter=0;" parent="1" source="w3Yrm_y4okoA8DExeI4v-88" target="PHuZwR8dhzgnK9gtwOif-160" edge="1">
                    <mxGeometry width="50" height="50" relative="1" as="geometry">
                        <mxPoint x="4445" y="714" as="sourcePoint"/>
                        <mxPoint x="3840" y="570" as="targetPoint"/>
                    </mxGeometry>
                </mxCell>
                <mxCell id="w3Yrm_y4okoA8DExeI4v-55" value="username" style="ellipse;whiteSpace=wrap;html=1;container=0;" parent="1" vertex="1">
                    <mxGeometry x="3880" y="884.51" width="120" height="60" as="geometry"/>
                </mxCell>
            </root>
        </mxGraphModel>
    </diagram>
</mxfile>